<mxfile host="65bd71144e">
    <diagram id="1o-E4QkYrQv7k4awpaCn" name="Page-1">
        <mxGraphModel dx="2220" dy="2173" grid="1" gridSize="10" guides="1" tooltips="1" connect="1" arrows="1" fold="1" page="1" pageScale="1" pageWidth="850" pageHeight="1100" math="0" shadow="0">
            <root>
                <mxCell id="0"/>
                <mxCell id="1" parent="0"/>
                <mxCell id="2" value="" style="shape=image;verticalLabelPosition=bottom;labelBackgroundColor=#ffffff;verticalAlign=top;aspect=fixed;imageAspect=0;image=data:image/png,iVBORw0KGgoAAAANSUhEUgAAB1AAAAMDCAYAAAAc2IfqAAAACXBIWXMAAA7DAAAOwwHHb6hkAAAAGXRFWHRTb2Z0d2FyZQB3d3cuaW5rc2NhcGUub3Jnm+48GgAAIABJREFUeJzs3T9oXff5P/BHPwQpfAPKEnVIUG1slCGDrikEEQhWQleZDBmkIVSDbRQIIa61BGRSIZEuCk5pwcIWNKGDM2TypSRLYwlcJAKNZUQGaxLGNqq6JFu3+xvy3BvL0rUlWfee++f1AiP7HEvnKZxev3Pe55xPT6VSqQQAAAAAAAAA8f+KHgAAAAAAAACgVShQAQAAAAAAAJICFQAAAAAAACApUAEAAAAAAACSAhUAAAAAAAAgKVABAAAAAAAAkgIVAAAAAAAAIClQAQAAAAAAAJICFQAAAAAAACApUAEAAAAAAACSAhUAAAAAAAAgKVABAAAAAAAAkgIVAAAAAAAAIClQAQAAAAAAAJICFQAAAAAAACApUAEAAAAAAACSAhUAAAAAAAAgKVABAAAAAAAAkgIVAAAAAAAAIClQAQAAAAAAAJICFQAAAAAAACApUAEAAAAAAACSAhUAAAAAAAAgKVABAAAAAAAAUm/RA9BaNjc3IyLi+PHjxQ4CAERExM2bN2NkZKToMWhRf/zjH2NmZqboMQCAVKlUih6BI7a5uek6GQC0kGZdK/MEKgAAAAAAAEBSoAIAAAAAAAAkBSoAAAAAAABAUqACAAAAAAAApN6iB6B9XL58OUqlUtFj0MHW19cjIuKDDz7Ytc/5R6M5/yjS1tZWRESMj48XPAmd5ObNm0WPQIe7cOFCrK2t7blvYmKiucPQdb755pvav5+P8/lHo33xxRfx+eefFz0GLcB/K9Jo6+vre16niHD+0XjOP4q0tbVV+HUyT6ACAAAAAAAAJE+gsm+lUilGRkaKHoMO1ttb/yPJ+UejOf8o0ubmZtEj0IF8btFofX19dfcdO3aseYPQlX71q1/V3efzj0ZbWloqegRahP9WpNFcq6BIzj+K1ArXyjyBCgAAAAAAAJAUqAAAAAAAAABJgQoAAAAAAACQFKgAAAAAAAAASYEKAAAAAAAAkBSoAAAAAAAAAEmBCgAAAAAAAJAUqAAAAAAAAABJgQoAAAAAAACQFKgAAAAAAAAASYEKAAAAAAAAkBSoAAAAAAAAAEmBCgAAAAAAAJAUqAAAAAAAAABJgQoAAAAAAACQFKgAAAAAAAAASYEKAAAAAAAAkBSoAAAAAAAAAEmBCgAAAAAAAJAUqAAAAAAAAABJgQoAAAAAAACQFKgAAAAAAAAASYEKAAAAAAAAkBSoAAAAAAAAAEmBCgAAAAAAAJAUqAAAAAAAAABJgQoAAAAAAACQeoseAADYbWlpacdXmqdUKsXbb79d9BgAQBv57LPP4scffyx6jK40MTERx44dK3oMAAA6jAIVAFpQtTidmZkpdpAuNDExoUAFAA7kz3/+c2xubhY9RlcaGRlRoAIAcOS8whcAAAAAAAAgKVABAAAAAAAAkgIVAAAAAAAAIClQAQAAAAAAAFJv0QMAAAdTqVSKHqFjHD9+PDY3N4seAwDoQBMTExER8be//a3YQTrA5uZmHD9+vOgxAADoIp5ABQAAAAAAAEgKVAAAAAAAAICkQAUAAAAAAABIClQAAAAAAACApEAFAAAAAAAASApUAAAAAAAAgKRABQAAAAAAAEgKVAAAAAAAAICkQAUAAAAAAABIClQAAAAAAACApEAFAAAAAAAASApUAAAAAAAAgKRABQAAAAAAAEgKVAAAAAAAAICkQAUAAAAAAABIClQAAAAAAACApEAFAAAAAAAASApUAAAAAAAAgKRABQAAAAAAAEgKVAAAAAAAAICkQAUAAAAAAABIClQAAAAAAACApEAFAFrKe++9Fz09PbVfAAC0LtkNAIBO1Fv0AAAAVaurq7GwsFD0GAAAPMXq6mpEhOwGAEBH8gQqAAAAAAAAQPIEKgBQuO3t7YiI+OSTTwqeBACAp9ne3pbbAADoaApUAKBQ29vbcfbs2YiIKJfLBU8DAMCTVLOb3AYAQCdToAIAhXEBjv346aefIiLi66+/juXl5R1rrU1OTsbp06cjIuL111+PgYGBZz5eT0/Pntsrlcoz/2wAaFfVN4bIbjzup59+iq+//joiom5We/311yMiGpbV5DQA4KhZAxUAAAAAAAAgddUTqO6IA4Cne/zfr0b827WxsREREVNTU55g4InK5XKcOXOm7v6FhYUdmW5+fj7efffdiIjo7+9v+HwAULRmZbepqamIsOQCOx02q8lpAECr65oCVaADgNZw7dq1OH/+/I5t09PTERExNzdXxEi0qC+//DLGx8cP9D1TU1OxvLwcERGzs7MxNDTUiNEAoGvUy25yW3f78ssvIyIOndVmZ2cjImQ1AKBldXyBKtABQOs4c+bMrqcWpqena//euhBHRMS3334bEQfPb1XVc6xcLsfa2pocBwCHUL0JvV52k9u617fffnvonBbx8zlVPa9kNQCgVVkDFQAAAAAAACB19BOo7ogDgNby+BMMN27ciNHR0YKmoVV99tlndff985//jN/+9rcREdHX1xc//fRT/Pvf/6593+PnWKlUirW1tYjwRhEAOIi9cltEyG7sK6v19fVFRNSyWvV76mU1OQ0AaDUdXaAKdADQeiYnJ+Ojjz6KiIiBgYGCp6HVrK6u7sphVXfv3o3BwcEd2/r6+uKtt96KiIi33norLl26tOuVgqVSKSLcEAcAh1HNbnIbEfWz2t27dyMi6ma1al6rl9Xc8AYAtJqOLVAFOgBoPSsrKzE8PFz0GLSw9fX1XduuX78eEbvz215mZ2fj1VdfjYjda6i6IQ4A9m9lZSUiQnZjh3pZbT85LeKXrLZXTotwwxsA0DqsgQoAAAAAAACQOvYJVHfEAUDr8QQDT/P999/v2vb6668f6GeMjY3Vfv94lrt06VIsLi5GRER/f/8hJgSA7iC3sZdmZTU5DQAoWsc+gXpUge769eu118Y96tKlS7G9vX3o+QAA2G1hYWHXtoGBgUOtuzY2NhbT09M7tpXL5Th79mycPXv20DMCAHSrelntoMbGxp6Y1QAAitaxT6AeZaCLiPjhhx92rIlaDXQ3btw4/JAA0CQ9PT1N+d5KpXLo40AjzM7O1n5fzXLlcjkifr4h7tH9ANAqmpHd5DZaQTWLPX7N7dKlSzv2AwA0W8c+gQoAAAAAAABwUB37BOpRc0ccAEB7qua0O3fu1J4+jfg517366qs71uECAKC5Zmdn486dOxHxy5tCqtffZDUAoCieQD2A2dnZGB0djdHR0dq2ubm5mJubiy+//LLAyQAAOsPj62BFRNy7dy/u3bv3zD97cXFxR46LiBgfH487d+7ULtoBAFBfvaz2rBYXF5+Y1QAAmq1jC1SBDgB+UalU9v3rKL8XDmqvNeuPquDs7+/f860hpVIpSqXSkWRFADgKzchucBj1stqz6u/vf2JWO6ob6gAA9qtjC1QAAAAAAACAg+rYAtUdcQAA7ee1117bte3atWtx7dq12N7efuafPzQ0FNevX4/r16/v2vf+++/LcQAAT1Avq21vbx9pVnvc+++/L6sBAE3VsQWqQAcA0H6GhoZ2rTlfLpejXC7H2bNnY2Nj45mPMTY2FmNjY7uWfCiXy/Gb3/zmmX8+AECnqma1R1Vz2lFmtenp6R1ZrZoHZTUAoFl6ix6gUaqBrlwu17ZVA11ExPz8fAwODj7TMcbGxuKHH36IiIi5ubnaMR79CgDAwczPz0fE7jxVvXBW9azrt1XfKFLNcQAAPN38/PyeOe3Rr0eV0yJkNQCgGB37BCoAAAAAAADAQXXsE6gR7ogDAGhH1beEXL9+PcbHxxt6rNnZ2Xj11VcjIhp+LACATjA4OFhb1qpZWU1OAwCaraOfQK0Gur3WKj1qs7OzTTkOAEC3GBsbi5WVlV1rojbiOGNjY3H37t2YnJxs2HEAADpFNT9Vs1qjj3X37l1ZDQBoqo4uUCMEOgCAdjY8PBw3btyIGzduxMrKSm191EYYHByMK1euxNraWqytrcXVq1cbnh8BANpZNautrKw0NKsNDg7uyGpXr16V1QCAhur4AhUAAAAAAABgvzp6DdRHVe+IW11djYiIf/3rXzE1NXXkx6mu2XXlypWYnJyM7777LiJ+XnP18fVYAQDYv+Hh4RgeHo6LFy829DhDQ0O1r+fOnWvosQAAOsHw8HDtazOyWjWvyWoAQKN0TYFaJdABwJNVKpWiRwAAYJ9kNwAAOHpe4QsAAAAAAACQFKgAAAAAAAAASYEKAAAAAAAAkBSoAAAAAAAAAEmBCgAAAAAAAJAUqAAAAAAAAACpt+gBAACqKpVK0SMAALAPchsAAJ3ME6gAAAAAAAAASYEKAAAAAAAAkBSoAAAAAAAAAEmBCgAAAAAAAJAUqAAAAAAAAABJgQoAAAAAAACQFKgAAAAAAAAASYEKAAAAAAAAkBSoAAAAAAAAAEmBCgAAAAAAAJAUqAAAAAAAAABJgQoAAAAAAACQFKgAAAAAAAAASYEKAAAAAAAAkBSoAAAAAAAAAEmBCgAAAAAAAJAUqAAAAAAAAABJgQoAAAAAAACQFKgAAAAAAAAASYEKAAAAAAAAkHqLHgAAOJg333yz6BE6xtbWVtEjAAAd6ptvvokI2e0o/O9//yt6BAAAuownUAEAAAAAAACSJ1ABoM0sLS0VPQIAAE9RfdOFN14AAED78QQqAAAAAAAAQFKgAgAAAAAAACQFKgAAAAAAAECyBioAtKBjx45FRMTIyEihc3SjV155pegRAIA2Mzw8XMtvNNcLL7xQ9AgAAHQgBSoAtKCJiYkdXwEAaF3Xr18vegQAAOAIeYUvAAAAAAAAQFKgAgAAAAAAACQFKgAAAAAAAEBSoAIAAAAAAAAkBSoAAAAAAABAUqACAAAAAAAAJAUqAAAAAAAAQFKgAgAAAAAAACQFKgAAAAAAAEBSoAIAAAAAAAAkBSoAAAAAAABAUqACAAAAAAAAJAUqAAAAAAAAQFKgAgAAAAAAACQFKgAAAAAAAEBSoAIAAAAAAAAkBSoAAAAAAABAUqACAAAAAAAAJAUqAAAAAAAAQFKgAgAAAAAAACQFKgAAAAAAAEBSoAIAAAAAAAAkBSoAAAAAAABAUqACAAAAAAAAJAUqAAAAAAAAQFKgAgAAAAAAACQFKgAAAAAAAEBSoAIAAAAAAACknkqlUil6CFrHrVu3IiLijTfeKHgSACAi4vLly/Hhhx8WPQYtamRkJJaXl4seAwBILrN1nlu3brlOBgAtpFnXyjyBCgAAAAAAAJAUqAAAAAAAAABJgQoAAAAAAACQFKgAAAAAAAAASYEKAAAAAAAAkHqLHoDW8uKLL9bdd/ny5SiVSk2chm6zvr4eEREffPDBrn3OPxrt9u3bERHxhz/8Ydc+5x+NtrW1FRER4+Pju/adPHmy2ePQRkqlUiwvL++57+bNm02ehm5z4cKFWFtb23PfxMREc4eh6/zjH/+I//73v3vu8/lHo33xxRfx+eefFz0GTeJaGUVaX1/f8zpZhPOPxrt9+/ae18kinH803tbW1p7XySKad61MgcoOzz33XN19pVIpRkZGmjcMXae3t/5HkvOPRnP+UaTNzc26+55//vnmDULbeeGFF+ru87lFo/X19dXdd+zYseYNQlf6v//7v7oFqs8/Gm1paanoEWgi18ookmsVFMn5R5Fa4VqZV/gCAAAAAAAAJAUqAAAAAAAAQFKgAgAAAAAAACQFKgAAAAAAAEBSoAIAAAAAAAAkBSoAAAAAAABAUqACAAAAAAAAJAUqAAAAAAAAQFKgAgAAAAAAACQFKgAAAAAAAEBSoAIAAAAAAAAkBSoAAAAAAABAUqACAAAAAAAAJAUqAAAAAAAAQFKgAgAAAAAAACQFKgAAAAAAAEBSoAIAAAAAAAAkBSoAAAAAAABAUqACAAAAAAAAJAUqAAAAAAAAQFKgAgAAAAAAACQFKgAAAAAAAEBSoAIAAAAAAAAkBSoAAAAAAABAUqACAAAAAAAAJAUqAAAAAAAAQFKgAgAAAAAAAKTeogcAAAAAAABa29LSUiwtLRU9RlcqlUrx9ttvFz0GdBUFKgAAAAAA8ERLS0sxMzNT9BhdaWJiQoEKTeYVvgAAAAAAAABJgQoAAAAAAACQFKgAAAAAAAAASYEKAAAAAAAAkBSoAAAAAAAAAKm36AEAAAAAAID2ValUih6hIxw/fjwiIjY3N4sdBPAEKgAAAAAAAECVAhUAAAAAAAAgKVABAAAAAAAAkgIVAAAAAAAAIClQAQAAAAAAAJICFQAAAAAAACApUAEAAAAAAACSAhUAAAAAAAAgKVABAAAAAAAAkgIVAAAAAAAAIClQAQAAAAAAAJICFQAAAAAAACApUAEAAAAAAACSAhUAAAAAAAAgKVABAAAAAAAAkgIVAAAAAAAAIClQAQAAAAAAAJICFQAAAAAAACApUAEAAAAAAACSAhUAAAAAAAAgKVABAAAAAAAAkgIVAAAAAACgjvfeey96enpqv4DOp0AFAAAAAAAASL1FDwAAAAAAANBqVldXIyJiYWGh4EmAZlOgAgAAAAAAPGJ7ezs++eSToscACqJABQAAAAAASNvb23H27Nkol8tFjwIUxBqoAAAAAAAAAMkTqAAAAAAAQNfb3t6OiPD0KaBABQAAAAAAWldPT8+OP1cqlSM/xsbGRkxNTUVEKE8Br/AFAAAAAAC617Vr1+KVV16JcrlcK0+np6cLngookgIVAAAAAAAAIClQAQAAAACArnPmzJk4c+ZMnD9/fsf26enpmJ2dLWgqoBVYAxUAAAAAAOg6j691euPGjYiIGB0dLWIcoIUoUAEAAAAAgK41OTkZH330UQwMDBQ9CtAivMIXAAAAAAAAIHkCFQAAAAAA6DorKysRETE8PFzwJECrUaACAAAAAABdR3EK1KNABQCgZfT09BQ9Ql2VSqXoEQAACtWqWU1OAwCOmjVQAQAAAAAAAFLHPoHqjjgAAAAAAGhNz3INf7/f63o8cFieQAUAoGVMTk4WPQIAAHXIagBAt+jYAlWgAwBoP1euXImVlZVYWVmJ0dHRoscBAOAR1aw2OjoqqwEAHa1jC1QAAAAAAACAg+rYAtUdcQAA7Wl4eDiGh4djcXFxV46bnp6OSqVSyC8AAKKW01opqwHt6Vn+f+7zAWi0ji1QIwQ6AIB21t/fX8tx1Sw3NzcXly5dikuXLhU8HQBA9+rv79+R1aqqWQ0AoN11dIEaIdABALSzao57NMvNzc3F3NxclMvlgqcDAOhu9W54K5fLshoA0NY6vkAFAAAAAAAA2K+uKVDdEQcA0J6qbxSZn5/fsf3MmTNx7969gqYCACAiajnt0ax25swZWQ0AaGtdU6BGCHQAAO1scHAwrl69umPbn/70p4KmAQCganBwUFYDADpKVxWoEQIdAEA7O3fu3I43iiwsLMTq6mqsrq4WPBkAANWsVlXNagAA7abrClQAAAAAAACAenqLHqAo586d27H+6cLCQvz+97+P4eHhgicDAOBJbty4UfQIAADUIasBAJ2gawvUCIEOAAAAAAAA2KmrC1QAAAAAAKC1VSqVokcAuow1UAEAAAAAAACSAhUAAAAAAAAgKVABAAAAAAAAkgIVAAAAAAAAIClQAQAAAAAAAJICFQAAAAAAACD1Fj0AAAAAAABAq6lUKkWPABTEE6gAAAAAAAAASYEKAAAAAAAAkBSoAAAAAAAAAEmBCgAAAAAAAJAUqAAAAAAAAABJgQoAAAAAAACQFKgAAAAAAAAASYEKAAAAAAAAkBSoAAAAAAAAAEmBCgAAAAAAAJAUqAAAAAAAAABJgQoAAAAAAACQFKgAAAAAAAAASYEKAAAAAAAAkBSoAAAAAAAAAEmBCgAAAAAAAJAUqAAAAAAAAABJgQoAAAAAAACQFKgAAAAAAAAASYEKAAAAAAAAkHqLHgAAAAAAAGhfb775ZtEjdIStra2iRwCSJ1ABAAAAAAAAkidQAQAAAACAQ1taWip6BIAj5QlUAAAAAAAAgKRABQAAAAAAAEgKVAAAAAAAAIBkDVQAAAAAAOCJjh07FiMjI0WP0ZVeeeWVokeArqNABQAAAAAAnmhiYiImJiaKHgOgKbzCFwAAAAAAACApUAEAAAAAAACSAhUAAAAAAAAgKVABAAAAAAAAkgIVAAAAAAAAIClQAQAAAAAAAJICFQAAAAAAACApUAEAAAAAAACSAhUAAAAAAAAgKVABAAAAAAAAkgIVAAAAAAAAIClQAQAAAAAAAJICFQAAAAAAACApUAEAAAAAAACSAhUAAAAAAAAgKVABAAAAAAAAkgIVAAAAAAAAIClQAQAAAAAAAJICFQAAAAAAACApUAEAAAAAAACSAhUAAAAAAAAgKVABAAAAAAAAkgIVAAAAAAAAIClQAQAAAAAAAJICFQAAAAAAACApUAEAAAAAAACSAhUAAAAAAAAgKVABAAAAAAAAUk+lUqkUPQSt49atWxER8cYbbxQ8CQAQEXH58uX48MMPix6DFjUyMhLLy8tFjwEAJJfZOs+tW7dcJwOAFtKsa2WeQAUAAAAAAABIClQAAAAAAACApEAFAAAAAAAASApUAAAAAAAAgKRABQAAAAAAAEi9RQ9Aa3nxxRfr7rt8+XKUSqUmTkO3WV9fj4iIDz74YNc+5x+N5vyjSFtbWxERMT4+vmvfyZMnmz0ObaRUKsXy8vKe+27evNnkaeg2Fy5ciLW1tT33Of9oNOcfRfriiy/i888/L3oMmsS1Moq0vr6+53WKCOcfjef8o0hbW1t7XieLaN61MgUqOzz33HN195VKpRgZGWneMHSd3t76H0nOPxrN+UeRNjc36+57/vnnmzcIbeeFF16ou8/nFo3W19dXd5/zj0Zz/lGkpaWlokegiVwro0iuVVAk5x9FaoVrZV7hCwAAAAAAAJAUqAAAAAAAAABJgQoAAAAAAACQFKgAAAAAAAAASYEKAAAAAAAAkBSoAAAAAAAAAEmBCgAAAAAAAJAUqAAAAAAAAABJgQoAAAAAAACQFKgAAAAAAAAASYEKAAAAAAAAkBSoAAAAAAAAAEmBCgAAAAAAAJAUqAAAAAAAAABJgQoAAAAAAACQFKgAAAAAAAAASYEKAAAAAAAAkBSoAAAAAAAAAEmBCgAAAAAAAJAUqAAAAAAAAABJgQoAAAAAAACQFKgAAAAAAAAASYEKAAAAAAAAkBSoAAAAAAAAAEmBCgAAAAAAAJAUqAAAAAAAAABJgQoAAAAAAACQFKgAAAAAAAAASYEKAAAAAAAAkBSoAAAAAAAAAEmBCgAAAAAAAJAUqAAAAAAAAABJgQoAAAAAAACQFKgAAAAAAAAASYEKAAAAAAAAkBSoAAAAAAAAAEmBCgAAAAAAAJAUqAAAAAAAAACpt+gBAADgIDY2NiIi4v79+3H79u3a9qmpqSd+3+joaJw+fbr251OnTsXLL78cv/71ryMioq+vrwHTAgB0l42Njbh//35ERC2r7SenRUQtq506dSoiopbV5DQAoNm6ukAV6AAAWl+1MF1eXo7z588f+ueUy+Uol8t1909PT8c777wTQ0NDhz4GAEC32djYiOXl5YiIQ2e1akarl9Wmp6cjImQ1AKBpuqpAFegAANrH9vZ2fPzxx7GwsNCU483NzcXc3FxMTk5GRMTMzEz09/c35dgAAO1ke3s7IqJpWW1ubq72dXJyMmZmZiIiZDUAoGGsgQoAAAAAAACQOv4JVHfEAQC0l2p+q65N2mzVzPjgwYNYXFyU4wAAHrG9vV1YTov4Oas9ePAgIkJWAwAapqMLVIEOAKD9fPzxx0/cf/Xq1YiIOHHiRJw8ebK2fWBg4Kk/+969e7XfP3z4MNbX1+su7VAul+Pjjz+OK1eu7GdsAICusJ+sduLEiYiIWlbbT06L+CWrPXz4MCKiblarLq0lqwEAjdLRBapABwDQXu7cuVP3rSHz8/Nx9uzZ6OvrO/TPfzTrDQwMxPDwcJw7dy4iIj799NOYmpra8fcXFhZqa6Ja3x4A6Hb1str8/HxExJFlterXalb79NNPIyLqZjU5DQA4atZABQAAAAAAAEgd+wSqO+IAANrPd999t2vb9PR0RERcvHixoce+ePFi/Pjjj7U17R+fSY4DALpdvazWjJwWEXWzmpwGABy1jn0C9UmB7uLFi89Unj5J9edXL/Q9bSYAAH7x/fff79r27rvvxrvvvtuU4+91nHK5XFuWAQCgm9XLas1SL6sBABy1ji1QBToAgPaz1xtEBgcHY3BwsCnH3+s4ClQAgJ/Vy2rNUi+rAQActY4tUAEAAAAAAAAOqmMLVHfEAQAAAAAAAAfVsQUqAADtZ3R0dNe2jY2N2NjYaMrx9zrO6OjonnMBAHSbelmtWeplNQCAo9axBapABwDQfvbKS81cg/Tvf//7rm0KVACAn9XLas1SL6sBABy1ji1QAQAAAAAAAA6qt+gBGmV0dHTXHXDlcjkuXrzYlOO7Iw4A4OBee+21XdumpqYiIuKll16KsbGxhh372rVrMTc3t6+ZAAC6Ub2s9tJLL0VENCyrXbt2LSJCVgMAmqZjC1SBDgCg/QwNDcXk5GRERCwsLOzYNz4+HuPj43H16tWIiDhx4kScPHmytn9gYOCpP//evXu13z98+DDW19fj/Pnzdf/+6OhoDA0NHeh/AwBAp6pmtb1yWvXr1atX48SJExERtay2n5wW8UtWe/jwYUSErAYAFKZjC1SBDgCgPc3MzERExIMHD/ZcU+tJmeuo/fWvf23asQAA2sHMzEw8ePAgIvZe/1RWAwA6gTVQAQAAAAAAAFLHPoEa4Y44AIB21N/fHxERi4uL8Ze//GXPpREaqfoK4QsXLuz77SQAAN2iv78/FhcXIyIKy2oXLlyIiP2/SQ4A4KA6ukAV6AAA2ld/f3/Mzs7GO++8ExERX331VUPz3Pz8fPzud7+z7AIAwFNUb3irZrWvvvoqIqJhWW0IMvLqAAAgAElEQVR+fj4iQlYDAJqmowvUCIEOAKDdVTPV0NBQTE1NxX/+85+IiLh//37cvn279veWl5f3fOtI1ejoaJw+fbr251OnTsXLL78cg4ODDZocAKDzDQ0N1fJaNavdv38/IqKW1ZaXlyNi7zfERfyc0yKiltVOnToVESGrAQCFsQYqAAAAAAAAQOr4J1Af5Y44AID21tfXF319fRERMTg4GG+99VZt38WLF4saCwCA+CWrVa+RVbOanAYAtJuuKlAfJdABAAAAAAAAj/MKXwAAAAAAAICkQAUAAAAAAABIClQAAAAAAACApEAFAAAAAAAASApUAAAAAAAAgKRABQAAAAAAAEgKVAAAAAAAAICkQAUAAAAAAABIClQAAAAAAACApEAFAAAAAAAASApUAAAAAAAAgKRABQAAAAAAAEgKVAAAAAAAAICkQAUAAAAAAABIClQAAAAAAACApEAFAAAAAAAASApUAAAAAAAAgKRABQAAAAAAAEgKVAAAAAAAAIDUW/QAAABwWD09Pbu2VSqVZ/67AAA8u/3mr73+Xr2/CwDQDArUJNABAAAAAAAAXuELAAAAAAAAkBSoAAAAAAAAAEmBCgAAAAAAAJAUqAAAAAAAAABJgQoAAAAAAACQFKgAAAAAAAAASYEKAAAAAAAAkBSoAAAAAAAAAEmBCgAAAAAAAJAUqAAAAAAAAABJgQoAAAAAAACQFKgAAAAAAAD/v707CI3zvPMH/jUUuocFeS8yC0VZtsWhlGLXf7CVLNRbp6eE0WkT7ELYS2RkaCEQXRokSrDZk0QXGrCQfCmGSJCcJLa9xIYENhGB7koUNmToLrUo6Xr2It1CL/of/L6KpZmRR9I70szo84Hg6J2Zd56Rx6Ovnt/7PD+AggIqAAAAAAAAQEEBFQAAAAAAAKCggAoAAAAAAABQUEAFAAAAAAAAKCigAgAAAAAAABQUUAEAAAAAAAAKCqgAAAAAAAAABQVUAAAAAAAAgIICKgAAAAAAAEBBARUAAAAAAACgoIAKAAAAAAAAUPjGSQ8AAAAOa3t7uyv3BQDg6DrNX3IaANBrrEAFAAAAAAAAKFiBWnBFHAAAAAAAAGAFKgAAAAAAAEBBARUAAAAAAACgoIAKAAAAAAAAUFBABQAAAAAAACgooAIAAAAAAAAUFFABAAAAAAAACgqoAAAAAAAAAAUFVAAAAAAAAICCAioAAAAAAABAQQEVAAAAAAAAoKCACgAAAAAAAFBQQAUAAAAAAAAoKKACAAAAAAAAFBRQAQAAAAAAAAoKqAAAAAAAAACFb5z0AAAA4DDGxsbyk5/8JJcuXUqSnD9//oRHBABA8iSnJdnJanIaANBvTn0BVaADAOhPKysrWVlZ2fm6VqspqAIA9IAyo5V/1mq1JObfAID+ceoLqAIdAMBgUFAFAOhN5t8AgH6jByoAAAAAAABA4dSvQN3LFXEAAIPBilQAgN5k/g0A6HUKqM8g0AEA9KbNzc18/vnn+bd/+7ckyZ07d/a9v4IqAMDx2NzcTJKdrNZJTnv6T/NvAMBJO/UFVIEOAKA/DQ0NZXR0NKOjo0mSyclJBVUAgB4wNDSUJDtZbXJyMon5NwCgf+iBCgAAAAAAAFA49StQXREHADAYrEgFAOhN5t8AgH5z6guoewl0AACDoVsF1WvXriVJhoeHuzRyAIDB1s35t2vXrslpAMCRKaA+g0AHADAY9hZUb9++nY2NjfzhD39Ikrz00kv7Pn5vQXVmZiavvvpqRkZGujdoAIBTYO/82+3bt5NkJ6t1ktOe/nNmZiZJZDUA4ND0QAUAAAAAAAAoKKAe0NDQ0M7qhdu3b2d7ezvb29t59OhRHjx48MzHlysXbty4kXPnzmV2djazs7PZ2Ng4htEDAFBqNBr55JNP8tJLLz1zVUMrk5OTee6557KwsJCFhYUujBAA4HRqNBq7stpBTU5O7spqAAAHZQvfI2o0GkmSTz75JDdu3Djw48stgScnJzM/P5/x8fFKxwcAwNfW19fz4YcfJvk6hx3VzZs3kzzZYq7cbg4AgIMrs1pVOS15ktXKhQuyGgDQKQXUQxLoAAB639bWVj7++OMkycLCwq4eps9Sq9UyPj6eK1euJEm++c1v5vPPP8/vf//7JF8XTkt37tzJj370o1y7dq2i0QMADLYyq5WrRDvNarVaLUl2sto3v/nNJNnJaq1yWhJZDQDomC18AQAAAAAAAApWoHbIFXEAAP1hfX09SfLBBx/sZKtOzc/P5/Lly0mSCxcuNN0+Ojqa0dHRJMlrr72WmZmZXc/x/vvvy3AAAPtYX1/PBx98kCSHzmqtclrydVZ77bXXkkRWAwAOTQF1HwIdAEDvK3vSP3z4MO+9996BtumdmJjIP//zPydJvvvd72ZoaKjjxw4NDWVycnJXhpubm8vdu3c7PgcAwKBrNBp5+PBhkhw6q333u99Nko6zWnk/WQ0AOCwF1KcIdAAA/aO82O0gF7rVarX85Cc/SZK8+OKLGRkZOdIYDlJwBQA4LQ67I0iZ1V588cUkkdUAgBOjByoAAAAAAABA4dSvQHVFHABAf7p48WJH95uZmUmS/PjHP27bXuGwyu2D9z4XAMBp1mlOS57kpx//+MdJWvegPwpZDQA4rFNfQBXoAAAGy8TERJLk5Zdfzg9/+MOuXqg2PDyc7e3trp0fAGDQTExM5OWXX04SWQ0A6FmnvoC6H4EOAKB/LC4u5tKlSzl//vxJDwUAgKcsLi4miawGAPQNPVABAAAAAAAAClag7uGKOACA/jA1NZVXXnklo6OjJz0UAACeMjU1lSSyGgDQt059AVWgAwDoT7dv3z7pIQAA0IKcBgD0u1NfQBXoOvejH/3opIfAKeb9x0ny/gP60ZkzZ056CJxi3n+cJO8/4Lj4XZGT5P3HSfL+4zTQAxUAAAAAAACgoIAKAAAAAAAAUFBABQAAAAAAACgooAIAAAAAAAAUFFABAAAAAAAACme2t7e3T3oQ9I6vvvoqSbK6unrCI+E0+stf/pIk+a//+q+m277zne/kr//6r497SJwi3n/0qosXL+bs2bMnPQx61B//+Mf88Y9/POlhcEr97//+b/73f/+35W0XL1485tFw2nj/0av+8R//8aSHQMW++uor82ScmL/85S8t5ykScxV0n/cfveq45soUUAEAAAAAAAAKtvAFAAAAAAAAKCigAgAAAAAAABQUUAEAAAAAAAAKCqgAAAAAAAAABQVUAAAAAAAAgIICKgAAAAAAAEBBARUAAAAAAACgoIAKAAAAAAAAUFBABQAAAAAAACgooAIAAAAAAAAUFFABAAAAAAAACgqoAAAAAAAAAAUFVAAAAAAAAICCAioAAAAAAABAQQEVAAAAAAAAoKCACgAAAAAAAFBQQAUAAAAAAAAoKKACAAAAAAAAFBRQAQAAAAAAAAoKqAAAAAAAAAAFBVQAAAAAAACAggIqAAAAAAAAQEEBFQAAAAAAAKCggAoAAAAAAABQUEAFAAAAAAAAKCigAgAAAAAAABQUUAEAAAAAAAAKCqgAAAAAAAAABQVUAAAAAAAAgIICKgAAAAAAAEBBARUAAAAAAACgoIAKAAAAAAAAUFBABQAAAAAAACgooAIAAAAAAAAUFFABAAAAAAAACgqoAAAAAAAAAIVvnPQAgM6tr68nST777LOsrKxkZWVl57aJiYlcunQpSXL58uVcuHDhRMZIb7h161bm5uZ2vt7e3j7B0TDo1tfX89lnnyVJNjY2cufOnV23P/359P3vfz+jo6PHPkaA41Z+NpZ5rfxzYmIiSXLp0iWZjdy6dStJdnKbzEY3Pf37ZLvMljz5fJLZgH7x9O+j7ebKLl++nCRy1ylnrozjVH42bWxsJEnbubLvf//7SSJ39SgrUAEAAAAAAAAKZ7ZdagE9r9Fo5Be/+MWuq6SeZWJiIu+8806SZHh4uFtDowetrq7mhRde2HXMRz1Vq9frSZLJycldV/h2olar5c0330ySXLt2rfKxAZyUMrMl6Ti3lSu+3nnnHZntlJHZOC71ev3QmS1J3nzzTZkN6CmNRiNJDj1XJnOdLqurq0kid9F1ZeZKcui5MpmrtyigQg8rA+Ebb7xx4A/dpz1+/Fg4PAX2e7/4qKdKS0tLuXHjRiXnWlxczPXr1ys5F8BJajQaMhsda/d+kdmo0tLSUpJUkttkNqBXlD9Dk4MXKEqPHz9OYsHBabDf+0XuokpVzZUtLi4midzVIxRQoYdNT08nad4j/aAmJiZy9+7dKoZEj3rWLxA+6qlKq9UyR7W8vLyzwgGgX01PT8tsPNOzLpCU2ahKtzJbErkNOFFVZa4kcteAe9YFjnIXVWi3wvmozJX1Bj1QAQAAAAAAAApWoEKPWl9fz8WLF1veNjMzk1qtlvPnz+8cq9fruX//fpLWK1a/+OKLXfdncHSyZaCPeqoyNjbW9F6r1WoZHx9Pkly4cCEjIyO7bt/Y2Mgnn3ySpP0Wcpubm0mSoaGhqocM0FXr6+tJ0jK3lZktyU4OK3tI379/v21me/r+DI5OthyU2ahKu8yWJOPj420zW5J88skn+25Bt7m5KbMBJ6LdXNnMzEyStJ0ra7di1VzZYOq0JZrcRRXGxsaSNOf7cq7swoULSdJ2rkzm6m3fOOkBAK198MEHTcf22wP9/PnzuX37dpLk7NmzOw2rSx999JFQOGDKCdjJyckj9VuDTpRbkrQKhPfu3du3d8zIyMhOULx06VKef/75pvv89re/TaLHA9B/WmW2pH2/wDKP3b59u21me/p+DIZ6vS6zcWxWV1fbZrakfc+/Mq+NjIy0zWzJk9wmswEnod1cWbvPpHKu7OzZs0liruwUKDNXcvgeudCpdpkrScdzZZcuXUqStnNlMtfJsgIVetDW1tZOuHtap/9cj/p4et/CwkJu3ry569jU1FSS1iuQ/d1zVLOzs0maf+E8zBW7Dx8+zEsvvbTrmB40QD9ql7mSzn72HvXx9L6FhYUkaZnbZDa6ZXZ2trLMlqRlbpPZgOO0tbWVJIee6zrq4+kP7ebK2q1A9nfPUbXLXMnBL4htN1cmc50sPVABAAAAAAAAClagQg+q1+tNy/bn5+d3egx2otVVV3pqDYZW/YympqZ2tnA+c+ZM02N81HNUrd5XyeHeW1ZcAYOiXWZL0nFua7dCUU+u/tcusyVPtnCW2eiWqt5bVmwBvaJsYdStuTKZq7+160FZzpVVOZ8BT6syz9tRsjdZgcqBLCwsZGFhIWfOnNn1361btw50nnq93nSOM2fOZGNjIxsbG10aff/405/+1HTs29/+9oHO0er+f/rTn1qem/6yNxAuLy/vFE+hW7a3t1v+dxhDQ0MVjw5opZuZrcxtp127zHaQ3Nbu/jJb/2uX2eQ2uq3KzCa3wbO1y1wHyV31en3fubLTrt18VlVzZfS3lZWVXblreXnZXBnHoqrMlZgr61XfOOkB0F/Kq7r2/mCam5vLyy+/vNMk+Vn27g2ePPnhNjIyUs1A0361VJW6dQXIf/7nfzYd+853vnOgc7S6f3nea9euHW5g9IyJiYn8/Oc/T5JK/93AcShXMzyt7IEKVGd8fLxtZkvSUW5rl9mS6n7+HEdmS7qT27qV2cpzy2z9r/z59vOf/1xmo++0ymyJ3AZ7lZkr+frimbm5uSTpeK6sVeZKzJWVWmWupLq5MplrMJRzZTIX/chcWW+yAhUAAAAAAACgYAUqh/L22283bUk1NjaWx48fJ0mGh4dbPq7s8bT3sRMTEx2vXoXT7tNPP83o6OhJDwMO7Xe/+13TsatXr57ASGDwtctsSfL48eO2mS15kttkNjg8mY1+1yqzJXIbtPL2228naZ7vKufKDpO5ks52DIHT7tNPP00SuYu+Zq6sN53Z1oWWQ5qdnW3aYmRqaipJWu4xX6/Xm5q9lx49elT59gr9ui1J8iRg7w3Ph3kuTdJPpyobmEM3tPqMe/ToURJbUkM3zM7OJmneGm5qaqptZkvSMrf1a2ZLuvOzsKrMlvj5fRr5O6fXlRfctMptMhu01m6urF0vxnZzZd36/ahf58rafR5VNVfm5+9gMz9KP2g3VyZznSwFVA5ta2srZ8+ebXnbgwcPmvoHtPoQKHtodeOKun4NhUl1YU5AOJ38MkAvm56ezp07d3Ydm5mZyVtvvXVCI4LBV/ZSaZXb2mW2pHmCanl5uW8zW9Kdn4VV/sz18/v08XdOL2uX2ZLIbbCPdnNlDx48SJKO58q6tfK0X+fKqpzf8vP39DE/Si+bnp5OEnNlPUoPVAAAAAAAAICCFagcycOHD5MkL730UtNtm5ubGRoaSvKkn8PNmzd33T4xMZG7d+92f5B9yApUjsLVlPSipaWlJMmNGzd2Ha/Varl3796+PYGAajx8+LBtZkuSoaGhtpktidzWghWoHIW/c3rV0tJS28yWRG6DZ2iXuZKv58oWFhaSxFxZh6xA5SjMj9Kr2mWuJObKeoQCKpVot71P+Q/+uHpoDQoFVI7CLwP0mlaBsLS2tpYLFy4c84jg9NpvS8ZarXasPbgGgQIqR+HvnF7T7oK3RGaDg9pvS8Z2mSsxV9aOAipHYX6UXtRurmxtbS1J5K4eoYBKJTY2NvLcc891fP9u9nMYBAqoHIVfBuglrYo1iUAIJ0Vmq5YCKkfh75xe0i6zJYqncBgbGxtJ0nHuWl5eThK5qw0FVI7C/Ci9pN0FNonM1Yv0QAUAAAAAAAAofOOkB8BgGBkZyfLycsbGxva9X9lDyxV1AIPNFXXQm8rMlqSj3CazAQw+O4ZA9cpteDudK5O5AAafHT/6jy18qdStW7eSJHNzcy1vP84eWu22Z6hSt/75jI2NZWVl5cjPtfd7UAbycuKUwWQ7Gk5So9HIG2+80fQZVhIIoXfcunWrbWZLjq8H13FktqQ7PwurymxJ69wmsw02mY2TVGa2JC1zm8wG1emVzJX071xZWYTu1lyZzDXYbOHLSWo0GknSdq7MBWu9zRa+VGpiYmJnlelei4uLGRkZObZQ2M+uXr3adKzsn9GpVve/evVqy3MDHNX6+nrW19dbBsJarZa1tTUTcdBj9stsZW5jf+0y20FyW7v7y2xAtzyd2Z7ObbVabSe3yWxQnXaZK4nM1aF281lVzZUBdEOZufabK7tw4YLc1cMUUAEAAAAAAAAKeqBSqc8++6ztbR999FGuX79+jKMB4DgsLS3lxo0bLW+r1Wq5d+9ehoeHj3lUwLO0y20fffRRkshtAANmaWkpSVrmtjKzJZHboGLmygBOn3ZzZWWLPXNl/UEBlcrU6/XcvHmz7e1zc3N5+eWXk3z9QUFrP/jBD5qOffnllwfa1uXLL7/s6LwARzE9PZ07d+40HZ+amkqS3L59+7iHBDxDvV5Pkra5rezR9fLLL8tsz9AusyXpOLe1ymztzg1wWO0yW/Ikt8ls0B2dzpXJXPtrl4vMlQG9Znp6OknazpXJXP1FAZXKTE5OPvM+ZdP3R48edb3HQz83Av/Wt77VdOz3v/99RkdHOz7H73//+47OC3AY+wXCxcVFV1FDD+sksyVPcpvMtr92mS1Jx7mtVWZrd26Aw2hXPF1cXExixwHopk7nyh49epSk8wuwDqtfc1e7XGSuDOgl+12wZq6sP+mBCgAAAAAAAFA4s92vlx7RUxYWFpq2JKnVarl69WqS5ivuLFd/tjNnzjQdO8g/11aP39zcTJIMDQ0dfmD0vKO+d+BZ9ut5ura2lgsXLhzziIBOtctsSXL16lWZ7RBa/dxNOv/Z2+7xm5ubMtuAk9notv16nsps0F0LCwtJmlsmlHNlrTJXogXKs3RrrkzmGmxHzevQiXZzZWtra0kid/UpBVSOpOyh9fzzzzfd9sUXX+TcuXNJktdffz0rKyu7bn/w4EGuXbvW/UH2qdnZ2aZAPT8/nyQZHx8/8GNNgJ4eJuPopnq93vSZX6vV8u677ybp/pZTwOG1+vebPMlsSXLu3Lm2mS2J3NbG7OxskuYLBufn5w+d2RITqKeBzEY3tctsSfLuu+/KbNBF7TJX8vVc2euvv54k5soOqN1cWSeZK7HA47RSQKWb2tVHyrkymau/6YHKkbTr5bC8vJzz58/vfP3mm282hcKXXnrJish9/PjHP246Vl65uLGxkddff33X97her+f+/ftJWvck/Kd/+qcujRQ4TX75y182HRMIoT+0ym2dZrbE1fnttMpsyZPcVma2JDvf5/IX7Pv378tsQNe0y2yJC96g29plruTrPPDmm28maS6glnNlMldr7ebKNjY2kqTtXFm7noRyF3BUrTJXYq5sUOiBCgAAAAAAAFCwhS+H1qqH1sTERJLk7t27Tfefnp5uuuJrZmYmSfLWW291aZT97datW0mSubm5I51nYmKi5d8Jg8l2cHTD+vp6kuTixYtdfR7vVaheux5c7fLB9PR0kuYdLWZmZmS2fdy6dUtm40BkNrplfX1dZoMT0m6urN3P93ZzZTJXe1VlrqT1/CWDxxa+dIvMNfgUUDmUdv0cHj16lKT1lkCNRmOnJ+pen376aUZHR6sd5ADYr8dsJ8oeN/fu3cvw8HBl46K3mYyjG9oVYKrmvQrV2q8H16NHj9pmtiQtc5vM1t5+3+tO1Go1me2UkdnollYFnKp5r8Ju+83ftMtcSfu5sk8//TRJ5K4WqspcSeSuU0IBlW6RuQafHqgcSrt+Dvvt6z08PLzT82FsbGzXbf/yL/+ycxtfK/s2PHr0KD/96U+bemPsZ2JiIu+8804SgRA4uoN8/gC9Y78eXO1yW5kblpeXZbYDOH/+/E5mSzr/3CxXQLzzzjsyG1AJuQ2OX6vMlXQ+V9Yqc5WPZ7cycyU59FyZzAVUQeYafHqgAgAAAAAAABRs4cuBHLSHVjut+hXMz89nfHz86IMcYGUPws8++ywrKyu7rnKp1Wo7W/Zevnw5Fy5cOJExcvJsB0c3tNvypmreq1Cdg/bgaqVdZksitz3D+vr6TmZLvr46ucxrtVpNZjvlZDa65Thym/cqfK1d5ko677F569atJDFXdghl5krSdq7s8uXLSSJ3nVK28KVbZK7Bp4AKAAAAAAAAULCFLwAAAAAAAEBBARUAAAAAAACgoIAKAAAAAAAAUFBABQAAAAAAACgooAIAAAAAAAAUFFABAAAAAAAACgqoAAAAAAAAAAUFVAAAAAAAAICCAioAAAAAAABAQQEVAAAAAAAAoKCACgAAAAAAAFBQQAUAAAAAAAAoKKACAAAAAAAAFBRQAQAAAAAAAAoKqAAAAAAAAAAFBVQAAAAAAACAggIqAAAAAAAAQEEBFQAAAAAAAKCggAoAAAAAAABQUEAFAAAAAAAAKCigAgAAAAAAABQUUAEAAAAAAAAKCqgAAAAAAAAABQVUAAAAAAAAgIICKgAAAAAAAEBBARUAAAAAAACgoIAKAAAAAAAAUFBABQAAAAAAACgooAIAAAAAAAAUFFABAAAAAAAACgqoAAAAAAAAAAUFVAAAAAAAAICCAioAAAAAAABAQQEVAAAAAAAAoKCACgAAAAAAAFBQQAUAAAAAAAAoKKACAAAAAAAAFBRQAQAAAAAAAAoKqAAAAAAAAAAFBVQAAAAAAACAggIqAAAAAAAAQEEBFQAAAAAAAKCggAoAAAAAAABQUEAFAAAAAAAAKCigAgAAAAAAABQUUAEAAAAAAAAKCqgAAAAAAAAABQVUAAAAAAAAgIICKgAAAAAAAEBBARUAAAAAAACgoIAKAAAAAAAAUFBABQAAAAAAACgooAIAAAAAAAAUFFABAAAAAAAACgqoAAAAAAAAAAUFVAAAAAAAAICCAioAAAAAAABAQQEVAAAAAAAAoKCACgAAAAAAAFBQQAUAAAAAAAAoKKACAAAAAAAAFBRQAQAAAAAAAAoKqAAAAAAAAAAFBVQAAAAAAACAggIqAAAAAAAAQEEBFQAAAAAAAKCggAoAAAAAAABQUEAFAAAAAAAAKCigAgAAAAAAABQUUAEAAAAAAAAKCqgAAAAAAAAABQVUAAAAAAAAgIICKgAAAAAAAEBBARUAAAAAAACgoIAKAAAAAAAAUFBABQAAAAAAACgooAIAAAAAAAAUFFABAAAAAAAACgqoAAAAAAAAAAUFVAAAAAAAAICCAioAAAAAAABAQQEVAAAAAAAAoKCACgAAAAAAAFBQQAUAAAAAAAAoKKACAAAAAAAAFBRQAQAAAAAAAAoKqAAAAAAAAAAFBVSAY7K+vp719fWcOXMmZ86cycLCQhYWFio5d71e3zlv+V+9Xk+9Xq/k/AsLC7vOvb6+Xsl5AQB61dO5rcxu+9mbxY7y3+zsbJaWlnby40HJbgBAPzho3urE1tZWtra2srq6moWFhdy6dSu3bt1qyltjY2OZnZ3NyspKVlZW0mg0jvS88hcMnjPb29vbJz0IgEHXaDTyxhtvJElWVlZSq9Vy//79JMnQ0NCRzz87O5vJycldx2ZmZpIkb7311pHPv7W1lddffz3J1+O/d+9ekmR4ePjI5wcA6CVldltZWUmSney2X247c+ZM18ZTq9Xy9ttvZ3R0tKP7l9nt6fHfu3dPbgMAesZh8tZ+6vV6VlZWmubHDmJqairj4+NJkpGRkQM9Vv6CwWMFKgAAAAAAAEDBClSAYzA9PZ07d+7sfP3pp592vILgWba2tnL27Nm2t29ublayynV1dTVJ8sILLyR5clVekty+ffvI5wYA6CWHyW7dXIFaWlxcTJJcv379mfddXV3dyW3Jk+wmtwEAvaKKubKtra2dHdKOsvK0lcXFxY4y19PkLxgsCqgAXfbw4cO89NJLO19XHZ5WVlYyNjbW9vbl5eXUarXKnm9vwH3w4EGuXbtW2fkBAE7Kw4cPk2Qnux3kgrHjKKCWOs1f09PTSbKT3R48eJAkshsAcGKOkreetk+tcSoAABDrSURBVHcL4G44zBye/AWDQwEVoEvK5vPnzp3bdfzRo0cH7qOwn7GxsV1hcXFxMTdu3Nj5ularZXl5ubLn29jYyHPPPbfr2OPHj/V0AAD6WqPRaJnbks56YLUqoB701+2tra2dP9fX17OwsJAkTRODnfYI29jYSBLZDQDoCUfNW+U5krQtnpaLCH7yk5/k0qVLO8+3Nzc1Go38+c9/zocffpik/QrWg+wAkshfMEj0QAUAAAAAAAAofOOkBwAwqO7fv7/r6/n5+SSdX1H3LOvr60m+XpFQXmF3/fr1vPfeezvHV1ZWsr6+ngsXLlTyvCMjI5mZmdl1Zd79+/fz1ltvVXJ+AICT0Cq7VblrSCfKlRFDQ0MZGRnJlStXkjSvsFhZWcnvfve7Z24FV45fdgMAekEVeeuNN95I0rxDR3KwNlbDw8MZHh7emS979dVX89Of/rTpvOUub5cuXcr58+efeV75CwaHLXwBuqBer+f555/fdWxzczNJ85YhhzU7O5vk6y1Gym16a7VaU1/UmZmZSkNaqy1XvvjiiyTpKEwCAPSSdtntILmtii1823n48OFOn7DSQXpytctuchsAcFyqyFsLCwu5efNmy9vW1taOvHig7KuaNBdoJyYmcvfu3QOdS/6C/mYLX4Au+OUvf7nr65mZmQwNDVVWPN3a2srk5OSuK9muXLmys0qh/LM0OTmZra2tnb5aRzU8PJyZmZnMzMzsHPvlL3/Z9LoBAPpBu+zWK/7f//t/Tcfu3LnT8ePL7PY0uQ0AOE5HzVsbGxsti6dra2uVFE+TJ5np3Xffzbvvvtt029zc3M5ucJ2eS/6C/qaACgAAAAAAAFCwhS9AxdbX13Px4sVdx6reomNpaWmnB0PSegu36enpJF+vTlhcXEzypEdqFer1epI0bb9S1VV/AADdVq4iqCK7dXML3yrO32rbvLW1tSSR3QCArqkqb7XavrfqllVPm52d3bXzW/KkZ+v4+HjH55C/oL9946QHADBoPvzww11f12q1yvsbvPfee7u+fuWVV5ruUx4rC6jlY6oqoJavqey5Wvrwww+FQACgL7TKbUl/9HSfmJg40P3Pnz+/8/rK7Fa+ftkNAOiWqvJWq+17X3311cMP7BleffXVTE5O7mSuq1ev5u/+7u8OdA75C/qbFagAFSn7i549e3bX8eXl5Z2wVIVWK1z3+yjfu1qh6hWiKysrGRsb23Vsc3Ozp/qGAQDstbW11TK3JTlUduvmCtRW+W9xcfHAF8aVE3eyGwBwHKrIW+1WsE5MTOTu3bsVjLK75C/oX3qgAgAAAAAAABQUUAEq8vHHH+fjjz9uOr6318FRffDBB7u+np+f3/f+e2/f+/ijavX6Wn0fAAB6SbvcVnV2O4pGo5FGo7HT2/5pL7744oHP1+71yW4AQDdUkbc2NjaysbHRdPzll18+0tiOi/wF/UsPVICK/OY3v2l5vKoeWo1GI8nXPU1LV69e3fdxe2+/c+dOfvazn2V4eLiScbV6fb/5zW8q3bYYAKBqrbLbSfc+LVtCbG1t5ZNPPsmNGzda3m9+fj4jIyMHPn+71ye7AQDdUEXeqtfrLY/30kVv+5G/oH/pgQpQgVY9HWZmZpIkb731ViXPsbS0lCQ7E2llyCp7R+xnbGxsp+dCcrieWfuZnZ3N5OTkrmObm5tJop8DANBz2mW3o+S2Vj1QqzY1NZUkuX379pHO0y67yW0AQFWqyltl79Cn57WS5PHjx5UtDjgO8hf0H1v4AgAAAAAAABRs4QtQgT/+8Y9Nx6reAm7vFm7j4+MdP3Z8fHzXlXo3btyodAVqq9dafk8uXLhQ2fMAAFThOLJb1R48eJBr165Vcq522U1uAwCqUlXe2rvytNRPq08T+Qv6kRWoABVo1cx+ZGTkUL2pWlldXW06duXKlVy5cqWjx7e63+rqasvzHkar17mxsdHy+wIAcNLaZbde9t///d9pNBppNBpHPle77AYAUJV+zFvdJH9B/7ECFaACrRra/83f/E1l5//1r3+96+upqakDXWk3PDy80zPrzp07u845Ojp65PG1eq2tvicAAL2g29mtG27evJmbN28mSdbW1o60WkF2AwC6rR/zVjfJX9B/rEAFAAAAAAAAKFiBClCBzc3NpmN/9Vd/Vcm5NzY2Mjc3t+vYK6+8cuDzlI8pV6CW5/z5z39+5C1UWr3WVt8TAIBe0M3s9rTt7e1DPW5jYyNffvll/v3f/z1JMjk5uev2ixcv5osvvjh031bZDQDotuPKW/1C/oL+c2b7sL/RAbDjzJkzTceq+nhdWlrKjRs3KjlXK4uLi7l+/fqRz9Pqe5BU930AAKhKN7JbN/Pg6upqXnjhhV3HarValpeXD33Obo4XAKCqrDE9PZ3k6wUBpUePHvVdT1X5C/qLLXwBetTW1la2tra6WjxNkhs3bmRra6urzwEAwOGNjo5mfn5+17GVlZWsrq5mdXX1hEYFANB9IyMjLQulX3311QmMBjhNFFABAAAAAAAACnqgAvSo3/3ud8f6XNeuXTu25wMA4GCuXr3adKzskTo6OnrcwwEAOBbf/va3Wx4/Sj/4gyh3+/j7v//7DA8Pd/35gN6hBypABbrRw+DWrVtJkrm5uSOdpxMTExO5e/fukc6hByoA0C/6rQfqfs9x2OfRgwsA6KaqssbGxkaS5Lnnntt1vIq5rGep1+t5/vnnd76u1Wqp1WpJkvHx8QOfT/6C/mILX4AeVK/XMzc3t6t4ury8nOXl5Wxvbx/5v+Xl5V3PNzc3l3q9nnq9ftwvFQAAAABaKnugloXL0tzc3E5xtVv+4z/+Y9fXKysrXX0+oLcooAIAAAAAAAAUFFABKjA1NdV0rNFopNFoHOp8H330UdOxK1eu5MqVK4c6X6tztXrOVs/biVavc2ZmJjMzM4c6HwBAN7XLbqdFu+wGAFCVqvNWqy1z33///UOf71kajUZu3LjRdPzy5cu5fPnyoc63l/wFve0bJz0AgEFw9uzZpmNfffXVoc61tbWVmzdv7jo2NTVVaaP64eHhnSB7586dJNl5ztdeey1DQ0MHOt9hXysAwEmoMrsdl1atFlpNTHai118rAND/qs5bP/zhD5uOTU5O5h/+4R+SJKOjo4c+dyu/+tWvmo7VarVcuHDhUOeTv6D/WIEKUIEf/OAHTce+/PLLfPnllwc+18cff9x07JVXXjnUuPbzyiuvtDxvq+d/llav8wc/+EHL7wsAwElrl916WaueW9/73vfyve9978DnapfdAACqUnXeGhoayuLiYtPxF154IS+88ELW19cPfe6nLS0tZWlpaWfBwdPefvvtQ59X/oL+o4AKAAAAAAAAULCFL0AFvvWtbzUd+7//+79DnWthYaHpWNXbkOx3zoWFhdRqtQOdq9VrbfU9AQDoBVVmt+OwtLSUycnJpuMvvvjioc4nuwEA3daNvHX9+vW89957SZp357h48WLm5+fz2muvJcmB21M1Go386le/arnyNHnSOuEo83PyF/QfBVSACpw7d67p2GeffZYkHRcjy61G9gbA+fn5I45uf/Pz87t6rq6srGR9ff1APR3K1/q08+fPVzI+AICqtctuB72IrFsajUb+53/+J7/+9a+TJHNzc033mZmZycjIyKHOL7sBAN3Wrbz17rvvJmnd3uDmzZs7c1zz8/O5fPly/vZv/zZJMjw8vOu+jUYjf/7zn3dy0dNzY08rx/uzn/3sSOOWv6D/nNne3t4+6UEADILp6ekkabpSrdOP2dnZ2SRpWl3wxRdfdDVQ1ev1PP/887uOzczM5K233ur4HGfOnNn19dTUVG7fvl3J+AAAumF6evrQua2VvXmo2x4/ftw0Edgp2Q0AOA5V562nra+v5+LFi5Wcq51arZZ79+4laS7AHpT8Bf1HD1QAAAAAAACAghWoABVZXV1Nkrzwwgu7jq+trT1zO9ytra2cPXt217Fyi5Dl5eUKR9na2NhY09Ynm5ubSZ7dM6LVFX+ffvppV/q2AgBUZXV1tWVuS3KgVgal41yB2km+bKVsGSG7AQDHoeq8tVej0cgvfvGLJK1bHhzF1NRUfvaznx155an8Bf1LD1SAinz3u99tefzzzz9/Zij87W9/23RsfHy8knF1Ynx8vKmAWo7p+vXr+z72888/bzrW7nsBANArWuWVMtdUMaFXtZmZmbz++utJDr+FXKvclshuAEB3dDtvDQ8P5+7du0mSV199Nf/6r//asjdqp2q1Wt58880kybVr1448vkT+gn5mBSpAxWZnZ5v6mD7ro7bVCtDHjx8nOXqPhU40Go2cO3du17FOV8DuXW0xPz9/rMVfAIDDateD/jC/Jle5AnVqaiojIyP5/ve/n+TJBNuzdgXpRKvclhzvhXsAwOlSZd7qRL1eT5J88cUXqdfr+cMf/pCk9QrVmZmZnD9/Pkny/PPP7/x/leQv6F96oAIAAAAAAAAUrEAFqNjGxkaee+65XccO26eql7Xr4fDo0aOMjIycxJAAAA5kY2MjSU5NdmuV25LIbgBA15ymvLWX/AX9zQpUgIqNjIxkYmJi17EPPvjghEbTPR988MGu1zUzM5OZmRkBEADoGyMjI6cquz2tzG2yGwDQTacpb+0lf0F/swIVoAtarUIdpCvMBv31AQCnS7tsMyi5ZtBfHwDQ+05bHjltrxcGkRWoAAAAAAAAAAUFVIAuGBkZ2dnStvT+++/n/fffP8FRVWfv67AFCQDQz8rs9rRByW1J++wGAHBcBj1v7SV/Qf+zhS9AlzQajSTJuXPndh3v9+06Wm1B8vjx4wwPD5/QiAAAjq7RaLTMbUn/tijY2NhIEtkNAOgJg5i39pK/YHB846QHADCoylC0vLycsbGxneMLCwu5ffv2SQ3ryBYWFnZ9vby8LAACAH1veHg4y8vLSbKT3crc06/ZrVVuSyK7AQAnYhDz1l7yFwwOW/gCAAAAAAAAFGzhC3AMbt26lbm5uZ2v19bWcuHChRMc0cGtr68nSS5evJgkmZiYSJLcvXv3xMYEANANg5LdytyWPMluchsA0CsGIW/tJX/BYFFABTgGe3s81Gq1nS08+kW5tcrKykqSJ70bEluQAACDZ1CyW5nbEn23AIDeMgh5ay/5CwaLLXwBjsHw8HDW1taytraW5EkRcmFhoakvQq9aWFjIysrKTghcW1vL8PCwEAgADKQyu5XK7NYvyuxWKrMbAECv6Pe8tZf8BYNHARUAAAAAAACgYAtfAAAAAAAAgIIVqAAAAAAAAAAFBVQAAAAAAACAggIqAAAAAAAAQEEBFQAAAAAAAKCggAoAAAAAAABQUEAFAAAAAAAAKCigAgAAAAAAABQUUAEAAAAAAAAKCqgAAAAAAAAABQVUAAAAAAAAgIICKgAAAAAAAEBBARUAAAAAAACgoIAKAAAAAAAAUFBABQAAAAAAACgooAIAAAAAAAAUFFABAAAAAAAACgqoAAAAAAAAAAUFVAAAAAAAAICCAioAAAAAAABAQQEVAAAAAAAAoKCACgAAAAAAAFBQQAUAAAAAAAAoKKACAAAAAAAAFBRQAQAAAAAAAAoKqAAAAAAAAAAFBVQAAAAAAACAggIqAAAAAAAAQEEBFQAAAAAAAKCggAoAAAAAAABQUEAFAAAAAAAAKCigAgAAAAAAABQUUAEAAAAAAAAKCqgAAAAAAAAABQVUAAAAAAAAgIICKgAAAAAAAEBBARUAAAAAAACgoIAKAAAAAAAAUFBABQAAAAAAACgooAIAAAAAAAAU/j85bg0dyThORwAAAABJRU5ErkJggg==;direction=east;imageBackground=none;" vertex="1" parent="1">
                    <mxGeometry width="1872" height="771" as="geometry"/>
                </mxCell>
                <mxCell id="3" value="&lt;font color=&quot;#000000&quot; style=&quot;background-color: rgb(255 , 255 , 255) ; font-size: 40px&quot;&gt;0.5&lt;/font&gt;" style="text;html=1;strokeColor=none;fillColor=none;align=center;verticalAlign=middle;whiteSpace=wrap;rounded=0;" vertex="1" parent="1">
                    <mxGeometry x="340" y="90" width="60" height="30" as="geometry"/>
                </mxCell>
                <mxCell id="4" value="&lt;font color=&quot;#000000&quot; style=&quot;background-color: rgb(255 , 255 , 255) ; font-size: 40px&quot;&gt;0.25&lt;/font&gt;" style="text;html=1;strokeColor=none;fillColor=none;align=center;verticalAlign=middle;whiteSpace=wrap;rounded=0;" vertex="1" parent="1">
                    <mxGeometry x="340" y="250" width="60" height="30" as="geometry"/>
                </mxCell>
                <mxCell id="5" value="&lt;font color=&quot;#000000&quot; style=&quot;background-color: rgb(255 , 255 , 255) ; font-size: 40px&quot;&gt;0.5&lt;/font&gt;" style="text;html=1;strokeColor=none;fillColor=none;align=center;verticalAlign=middle;whiteSpace=wrap;rounded=0;" vertex="1" parent="1">
                    <mxGeometry x="510" y="250" width="60" height="30" as="geometry"/>
                </mxCell>
                <mxCell id="6" value="&lt;font color=&quot;#000000&quot; style=&quot;background-color: rgb(255 , 255 , 255) ; font-size: 40px&quot;&gt;0.25&lt;/font&gt;" style="text;html=1;strokeColor=none;fillColor=none;align=center;verticalAlign=middle;whiteSpace=wrap;rounded=0;" vertex="1" parent="1">
                    <mxGeometry x="180" y="90" width="60" height="30" as="geometry"/>
                </mxCell>
                <mxCell id="7" value="&lt;font color=&quot;#000000&quot; style=&quot;background-color: rgb(255 , 255 , 255) ; font-size: 40px&quot;&gt;0.25&lt;/font&gt;" style="text;html=1;strokeColor=none;fillColor=none;align=center;verticalAlign=middle;whiteSpace=wrap;rounded=0;" vertex="1" parent="1">
                    <mxGeometry x="510" y="420" width="60" height="30" as="geometry"/>
                </mxCell>
                <mxCell id="13" value="&lt;font color=&quot;#000000&quot; style=&quot;background-color: rgb(255 , 255 , 255) ; font-size: 40px&quot;&gt;0.125&lt;/font&gt;" style="text;html=1;strokeColor=none;fillColor=none;align=center;verticalAlign=middle;whiteSpace=wrap;rounded=0;" vertex="1" parent="1">
                    <mxGeometry x="180" y="250" width="60" height="30" as="geometry"/>
                </mxCell>
                <mxCell id="14" value="&lt;font color=&quot;#000000&quot; style=&quot;background-color: rgb(255 , 255 , 255) ; font-size: 40px&quot;&gt;0.125&lt;/font&gt;" style="text;html=1;strokeColor=none;fillColor=none;align=center;verticalAlign=middle;whiteSpace=wrap;rounded=0;" vertex="1" parent="1">
                    <mxGeometry x="340" y="420" width="60" height="30" as="geometry"/>
                </mxCell>
                <mxCell id="15" value="&lt;font color=&quot;#000000&quot; style=&quot;background-color: rgb(255 , 255 , 255) ; font-size: 40px&quot;&gt;0.0625&lt;/font&gt;" style="text;html=1;strokeColor=none;fillColor=none;align=center;verticalAlign=middle;whiteSpace=wrap;rounded=0;" vertex="1" parent="1">
                    <mxGeometry x="180" y="420" width="60" height="30" as="geometry"/>
                </mxCell>
                <mxCell id="18" value="" style="endArrow=classic;html=1;fontSize=40;fontColor=#000000;strokeWidth=11;fillColor=#f5f5f5;strokeColor=#666666;exitX=0.47;exitY=0.078;exitDx=0;exitDy=0;exitPerimeter=0;entryX=0.47;entryY=0.208;entryDx=0;entryDy=0;entryPerimeter=0;jumpSize=6;verticalAlign=middle;" edge="1" parent="1">
                    <mxGeometry width="50" height="50" relative="1" as="geometry">
                        <mxPoint x="840.8400000000001" y="60.13799999999992" as="sourcePoint"/>
                        <mxPoint x="840.8400000000001" y="160.36799999999994" as="targetPoint"/>
                        <Array as="points">
                            <mxPoint x="841" y="160"/>
                        </Array>
                    </mxGeometry>
                </mxCell>
                <mxCell id="20" value="" style="endArrow=classic;html=1;fontSize=40;fontColor=#000000;strokeWidth=11;fillColor=#f5f5f5;strokeColor=#666666;exitX=0.47;exitY=0.078;exitDx=0;exitDy=0;exitPerimeter=0;entryX=0.47;entryY=0.208;entryDx=0;entryDy=0;entryPerimeter=0;jumpSize=6;verticalAlign=middle;" edge="1" parent="1">
                    <mxGeometry width="50" height="50" relative="1" as="geometry">
                        <mxPoint x="840.0000000000001" y="219.99799999999993" as="sourcePoint"/>
                        <mxPoint x="840.0000000000001" y="320.22799999999995" as="targetPoint"/>
                        <Array as="points">
                            <mxPoint x="840.16" y="319.86"/>
                        </Array>
                    </mxGeometry>
                </mxCell>
                <mxCell id="21" value="" style="endArrow=classic;html=1;fontSize=40;fontColor=#000000;strokeWidth=11;fillColor=#f5f5f5;strokeColor=#666666;exitX=0.47;exitY=0.078;exitDx=0;exitDy=0;exitPerimeter=0;entryX=0.47;entryY=0.208;entryDx=0;entryDy=0;entryPerimeter=0;jumpSize=6;verticalAlign=middle;" edge="1" parent="1">
                    <mxGeometry width="50" height="50" relative="1" as="geometry">
                        <mxPoint x="1160" y="310.22799999999995" as="sourcePoint"/>
                        <mxPoint x="1160" y="209.99799999999993" as="targetPoint"/>
                        <Array as="points">
                            <mxPoint x="1160.1599999999999" y="309.86"/>
                        </Array>
                    </mxGeometry>
                </mxCell>
                <mxCell id="22" value="" style="endArrow=classic;html=1;fontSize=40;fontColor=#000000;strokeWidth=11;fillColor=#f5f5f5;strokeColor=#666666;exitX=0.47;exitY=0.078;exitDx=0;exitDy=0;exitPerimeter=0;entryX=0.47;entryY=0.208;entryDx=0;entryDy=0;entryPerimeter=0;jumpSize=6;verticalAlign=middle;" edge="1" parent="1">
                    <mxGeometry width="50" height="50" relative="1" as="geometry">
                        <mxPoint x="1160" y="470.22800000000007" as="sourcePoint"/>
                        <mxPoint x="1160" y="369.99800000000005" as="targetPoint"/>
                        <Array as="points">
                            <mxPoint x="1160.1599999999999" y="469.86"/>
                        </Array>
                    </mxGeometry>
                </mxCell>
                <mxCell id="26" value="" style="endArrow=classic;html=1;fontSize=40;fontColor=#000000;strokeWidth=11;fillColor=#f5f5f5;strokeColor=#666666;exitX=0.513;exitY=0.571;exitDx=0;exitDy=0;exitPerimeter=0;jumpSize=6;verticalAlign=middle;" edge="1" parent="1">
                    <mxGeometry width="50" height="50" relative="1" as="geometry">
                        <mxPoint x="799.9959999999998" y="433.991" as="sourcePoint"/>
                        <mxPoint x="899.66" y="433.75" as="targetPoint"/>
                        <Array as="points"/>
                    </mxGeometry>
                </mxCell>
                <mxCell id="27" value="" style="endArrow=classic;html=1;fontSize=40;fontColor=#000000;strokeWidth=11;fillColor=#f5f5f5;strokeColor=#666666;exitX=0.513;exitY=0.571;exitDx=0;exitDy=0;exitPerimeter=0;jumpSize=6;verticalAlign=middle;" edge="1" parent="1">
                    <mxGeometry width="50" height="50" relative="1" as="geometry">
                        <mxPoint x="949.9959999999996" y="433.991" as="sourcePoint"/>
                        <mxPoint x="1049.6599999999999" y="433.75" as="targetPoint"/>
                        <Array as="points"/>
                    </mxGeometry>
                </mxCell>
            </root>
        </mxGraphModel>
    </diagram>
</mxfile>